<?xml version="1.0" encoding="UTF-8" standalone="no"?>
<!-- Created with Inkscape (http://www.inkscape.org/) -->

<svg
   width="32"
   height="32"
   viewBox="0 0 8.4666667 8.4666667"
   version="1.1"
   id="svg3055"
   inkscape:version="1.2 (dc2aedaf03, 2022-05-15)"
   sodipodi:docname="Anchor_button.svg"
   xmlns:inkscape="http://www.inkscape.org/namespaces/inkscape"
   xmlns:sodipodi="http://sodipodi.sourceforge.net/DTD/sodipodi-0.dtd"
   xmlns="http://www.w3.org/2000/svg"
   xmlns:svg="http://www.w3.org/2000/svg">
  <sodipodi:namedview
     id="namedview3057"
     pagecolor="#ffffff"
     bordercolor="#666666"
     borderopacity="1.0"
     inkscape:pageshadow="2"
     inkscape:pageopacity="0.0"
     inkscape:pagecheckerboard="0"
     inkscape:document-units="mm"
     showgrid="false"
     units="px"
     inkscape:zoom="20.496745"
     inkscape:cx="16.807547"
     inkscape:cy="18.539529"
     inkscape:window-width="1920"
     inkscape:window-height="1040"
     inkscape:window-x="0"
     inkscape:window-y="40"
     inkscape:window-maximized="1"
     inkscape:current-layer="layer1"
     inkscape:showpageshadow="2"
     inkscape:deskcolor="#d1d1d1" />
  <defs
     id="defs3052" />
  <g
     inkscape:label="Layer 1"
     inkscape:groupmode="layer"
     id="layer1">
    <path
       id="path3138"
       style="fill:#ffffff;fill-opacity:1;stroke:#000000;stroke-width:0;stroke-miterlimit:4;stroke-dasharray:none"
       d="M 4.2333332,0.32504484 A 1.6982941,1.6982941 0 0 0 2.5352457,2.0231323 1.6982941,1.6982941 0 0 0 3.5460368,3.5749757 V 6.5856446 A 3.6440895,3.6440895 0 0 1 3.42253,6.5598064 3.6440895,3.6440895 0 0 1 3.1589802,6.4890095 3.6440895,3.6440895 0 0 1 2.9021483,6.3990927 3.6440895,3.6440895 0 0 1 2.6520346,6.2900552 3.6440895,3.6440895 0 0 1 2.4112222,6.1629314 3.6440895,3.6440895 0 0 1 2.1807454,6.0177204 3.6440895,3.6440895 0 0 1 1.9611205,5.8559732 3.6440895,3.6440895 0 0 1 1.7549316,5.6782063 3.6440895,3.6440895 0 0 1 1.5621785,5.4854534 3.6440895,3.6440895 0 0 1 1.3844116,5.2787476 3.6440895,3.6440895 0 0 1 1.2226643,5.0596396 3.6440895,3.6440895 0 0 1 1.0774535,4.8291626 3.6440895,3.6440895 0 0 1 0.95032953,4.5878335 3.6440895,3.6440895 0 0 1 0.84129226,4.3382365 3.6440895,3.6440895 0 0 1 0.75137528,4.0808879 3.6440895,3.6440895 0 0 1 0.68057855,3.8178548 3.6440895,3.6440895 0 0 1 0.6681762,3.7522256 3.6440895,3.6440895 0 0 0 0.58911127,4.4979167 3.6440895,3.6440895 0 0 0 4.2333332,8.1416218 3.6440895,3.6440895 0 0 0 7.8775553,4.4979167 3.6440895,3.6440895 0 0 0 7.7995239,3.7470581 3.6440895,3.6440895 0 0 1 7.7860878,3.8178548 3.6440895,3.6440895 0 0 1 7.7152911,4.0808879 3.6440895,3.6440895 0 0 1 7.6253741,4.3382365 3.6440895,3.6440895 0 0 1 7.5163369,4.5878335 3.6440895,3.6440895 0 0 1 7.3892128,4.8291626 3.6440895,3.6440895 0 0 1 7.2440021,5.0596396 3.6440895,3.6440895 0 0 1 7.0822549,5.2787476 3.6440895,3.6440895 0 0 1 6.9044879,5.4854534 3.6440895,3.6440895 0 0 1 6.711735,5.6782063 3.6440895,3.6440895 0 0 1 6.505546,5.8559732 3.6440895,3.6440895 0 0 1 6.285921,6.0177204 3.6440895,3.6440895 0 0 1 6.0554443,6.1629314 3.6440895,3.6440895 0 0 1 5.8146319,6.2900552 3.6440895,3.6440895 0 0 1 5.5645181,6.3990927 3.6440895,3.6440895 0 0 1 5.3076863,6.4890095 3.6440895,3.6440895 0 0 1 5.0441364,6.5598064 3.6440895,3.6440895 0 0 1 4.9206297,6.5856446 V 3.5760092 A 1.6982941,1.6982941 0 0 0 5.9314208,2.0231323 1.6982941,1.6982941 0 0 0 4.2333332,0.32504484 Z m 0,0.81338696 A 0.88485434,0.88485434 0 0 1 5.1180337,2.0231323 0.88485434,0.88485434 0 0 1 4.2333332,2.9083496 0.88485434,0.88485434 0 0 1 3.3486327,2.0231323 0.88485434,0.88485434 0 0 1 4.2333332,1.1384318 Z" />
  </g>
</svg>
