<?xml version="1.0" encoding="UTF-8" standalone="no"?>
<!-- Created with Inkscape (http://www.inkscape.org/) -->

<svg
   width="32"
   height="32"
   viewBox="0 0 8.4666667 8.4666667"
   version="1.1"
   id="svg5"
   inkscape:version="1.2 (dc2aedaf03, 2022-05-15)"
   sodipodi:docname="Maximized_button.svg"
   xmlns:inkscape="http://www.inkscape.org/namespaces/inkscape"
   xmlns:sodipodi="http://sodipodi.sourceforge.net/DTD/sodipodi-0.dtd"
   xmlns="http://www.w3.org/2000/svg"
   xmlns:svg="http://www.w3.org/2000/svg">
  <sodipodi:namedview
     id="namedview7"
     pagecolor="#ffffff"
     bordercolor="#666666"
     borderopacity="1.0"
     inkscape:pageshadow="2"
     inkscape:pageopacity="0.0"
     inkscape:pagecheckerboard="0"
     inkscape:document-units="mm"
     showgrid="false"
     units="px"
     inkscape:zoom="20.496745"
     inkscape:cx="13.758282"
     inkscape:cy="16.880729"
     inkscape:window-width="1920"
     inkscape:window-height="1040"
     inkscape:window-x="0"
     inkscape:window-y="40"
     inkscape:window-maximized="1"
     inkscape:current-layer="layer1"
     inkscape:showpageshadow="2"
     inkscape:deskcolor="#d1d1d1" />
  <defs
     id="defs2" />
  <g
     inkscape:label="Layer 1"
     inkscape:groupmode="layer"
     id="layer1">
    <path
       id="rect846"
       style="fill:#fefbfc;stroke:#000000;stroke-width:0;fill-opacity:1;stroke-dasharray:none"
       d="M 4.6621094 1.6582031 C 2.9978879 1.6582031 1.6582031 2.9978879 1.6582031 4.6621094 L 1.6582031 27.337891 C 1.6582031 29.002112 2.9978879 30.341797 4.6621094 30.341797 L 27.337891 30.341797 C 29.002112 30.341797 30.341797 29.002112 30.341797 27.337891 L 30.341797 4.6621094 C 30.341797 2.9978879 29.002112 1.6582031 27.337891 1.6582031 L 4.6621094 1.6582031 z M 6.1113281 3.1074219 L 25.888672 3.1074219 C 27.552893 3.1074219 28.892578 4.4471066 28.892578 6.1113281 L 28.892578 25.888672 C 28.892578 27.552893 27.552893 28.892578 25.888672 28.892578 L 21.994141 28.892578 C 22.412042 28.320147 22.658203 27.613787 22.658203 26.847656 L 22.658203 12.806641 C 22.658203 10.887232 21.112768 9.3417969 19.193359 9.3417969 L 5.1523438 9.3417969 C 4.3862134 9.3417969 3.6798535 9.5879576 3.1074219 10.005859 L 3.1074219 6.1113281 C 3.1074219 4.4471066 4.4471066 3.1074219 6.1113281 3.1074219 z "
       transform="scale(0.26458333)" />
  </g>
</svg>
